<svg xmlns="http://www.w3.org/2000/svg" width="92.25" height="104.92" viewBox="0 0 92.25 104.92">
  <defs>
    <style>
      .a {
        fill: #231f20;
      }

      .a, .b {
        fill-rule: evenodd;
      }

      .b {
        fill: #840508;
      }
    </style>
  </defs>
  <title>logotipo</title>
  <g>
    <path class="a" d="M85.37,100.47c-3.42,0-5.48-3-5.48-6.22,0-3.72,2.38-5.94,5.29-5.94,3.63,0,5.33,3.18,5.33,6.17C90.51,98.4,88.12,100.47,85.37,100.47Zm6.88-6a6.83,6.83,0,0,0-6.9-7.17,7,7,0,0,0-7.15,7.15,7.15,7.15,0,0,0,12.21,4.81A6.81,6.81,0,0,0,92.25,94.47Zm-35.69,6c-3.42,0-5.48-3-5.48-6.22,0-3.72,2.38-5.94,5.29-5.94,3.63,0,5.33,3.18,5.33,6.17C61.71,98.4,59.31,100.47,56.56,100.47Zm6.89-6a6.83,6.83,0,0,0-6.9-7.17,7,7,0,0,0-7.15,7.15,6.66,6.66,0,0,0,7,6.92,6.68,6.68,0,0,0,5.24-2.1A6.81,6.81,0,0,0,63.45,94.47ZM44.12,87.74v.19c1.19.15,1.19.64,1.19,2v10.59a8.93,8.93,0,0,1-.32,2.38,3.58,3.58,0,0,1-1.4,1.82l.09.23a5.67,5.67,0,0,0,2.06-1.48,4,4,0,0,0,.77-2.82V89.9c0-1.28,0-1.79,1.19-2v-.19ZM30.46,100.47c-3.42,0-5.48-3-5.48-6.22,0-3.72,2.38-5.94,5.29-5.94,3.63,0,5.33,3.18,5.33,6.17C35.61,98.4,33.21,100.47,30.46,100.47Zm6.88-6a6.83,6.83,0,0,0-6.9-7.17,7,7,0,0,0-7.14,7.15,6.66,6.66,0,0,0,7,6.92,6.69,6.69,0,0,0,5.24-2.1A6.81,6.81,0,0,0,37.35,94.47Zm-32.92.45a3.16,3.16,0,0,1,2,2.76,2.73,2.73,0,0,1-3,2.74c-2.06,0-2.58-2-2.79-2H0v2.15a9.35,9.35,0,0,0,3.23.69,5,5,0,0,0,3.29-1,3.89,3.89,0,0,0,1.42-3c0-2.07-1.43-3-2.69-3.76l-1.05-.62c-1-.58-1.9-1.17-1.9-2.42A2.26,2.26,0,0,1,4.8,88.28a2.78,2.78,0,0,1,1.69.47c.49.38.69,1.37.94,1.37H7.16V88c0-.3-1.45-.64-2.76-.64C1.74,87.36.7,89,.7,90.78c0,1.94,1.31,2.74,2.47,3.44ZM71,87.74h-.17L65.83,99.21c-.45,1-.25,1.41-1.44,1.54v.1H68v-.1c-1.19-.09-1.1-.41-1.1-.83a3.77,3.77,0,0,1,.27-1.22l1-2.62H72.9l1.16,2.82c.11.26.59.77.59,1,0,.6-.72.81-.72.85v.1H77.5v-.06c-1.19-.34-1.13-.66-1.69-2ZM70.6,90.3l1.93,4.59H68.58ZM73.73,84a1.85,1.85,0,0,1-1.49.55c-.73,0-1.45-.27-2.18-.27s-1,.75-1.25,1.4a1.77,1.77,0,0,1,1-.37c.84,0,1.66.3,2.5.3S73.45,84.7,73.73,84ZM16.15,87.74H16L11,99.21c-.45,1-1.42,1.41-1.42,1.54v.1h3.58v-.1c-1.19-.09-1.12-.41-1.12-.83a3.7,3.7,0,0,1,.25-1.22l1-2.62H18l1.16,2.82c.11.26.62.77.62,1,0,.6-.7.81-.7.85v.1h3.58v-.06c-1.19-.34-1.16-.66-1.72-2ZM15.7,90.3l1.93,4.59H13.68Zm3-6.35a1.85,1.85,0,0,1-1.49.55c-.73,0-1.45-.27-2.18-.27s-1,.75-1.25,1.4a1.78,1.78,0,0,1,1-.37c.84,0,1.66.3,2.5.3S18.47,84.7,18.75,84Z"/>
    <path class="b" d="M25,14.25a1.62,1.62,0,0,0,0,2.66A1.63,1.63,0,0,0,25,14.25ZM62.59,57.61c-.1,4.43,2.7,6.82,6.19,6.2C69.26,60,66.68,57.42,62.59,57.61Zm-32.8,5.66c5-1.9,6.4-6.15,4.12-9.82C29.43,54.64,27.72,58.73,29.79,63.27ZM48.11,27.08c-2.23,7.2,1.24,12.43,7.24,13.07C57.91,34.15,54.9,28.7,48.11,27.08Zm20,5.59c-7.46-1-12,3.39-11.57,9.46C62.89,43.63,67.71,39.69,68.12,32.67ZM50.33,49.35c4.44-.68,6.33-3.93,5.1-7.35C51.54,42.19,49.41,45.25,50.33,49.35Zm.87,12.18C57,60,59.1,55.4,57,51,51.82,51.81,49.41,56.2,51.21,61.53ZM57.89,51.1c.5,4.22,3.47,6.12,6.71,5.06C64.55,52.48,61.76,50.37,57.89,51.1ZM34.81,47.93c5-.15,7.52-3.48,6.63-7.43C37.11,40.18,34.35,43.27,34.81,47.93Zm7-9c-.46-7.08-5.26-10.5-10.75-9C30.83,36.08,35.31,39.85,41.82,39Zm4.35,3.76c2.76-2,2.92-4.83.92-6.71C44.54,37.49,44.15,40.28,46.17,42.73Zm-33.55,32a109.18,109.18,0,0,1,26-5c3-.81,4.12-2.4,4.42-3.52,1.06-3.94.41-8.63.16-10.71a11.09,11.09,0,0,0-4.8-7.36,10.47,10.47,0,0,1,5.9,4,43,43,0,0,0-1.31-12.15c2.16,3.51,2.81,3.89,3.72,8.87.38-2.31.68-6.47,4.2-9.28-3,4.48-1.75,10.06-2.06,13,.46-1,1.83-2.31,5.11-2.46a7.69,7.69,0,0,0-4.43,5.44c-.44,2.33-.64,7.92.09,10.51C50,67.47,51,69,55.37,69.81a109.3,109.3,0,0,1,24.71,4.92,167.49,167.49,0,0,0-67.47,0ZM22.9,64c3.22.45,5.18-1.42,5-4.05C25.16,59.31,23.08,61,22.9,64ZM57.68,44.46c-2.13,1.85-2.07,4.21-.28,5.61C59.41,48.67,59.53,46.33,57.68,44.46ZM59,56.22c-1.84,3-.85,5.85,1.83,6.83C62.72,60.59,62,57.75,59,56.22Zm19.4-1.08c.21-3.73-2.08-5.84-5.05-5.42C72.86,52.93,75,55.19,78.43,55.14ZM34.85,28.21c5.26,3.09,10,1.29,11.62-3.38C42.21,21.7,37.36,23.1,34.85,28.21Zm34.5-28c-4.83-.67-7.77,2.13-7.5,6.07C66,7.31,69.09,4.78,69.35.22ZM49.4,25.43c1.92,2.68,4.65,2.84,6.45.9C54.44,23.85,51.76,23.47,49.4,25.43Zm8.31.09c-2.59,3.08-2,6.38.85,8C61.08,31.06,60.73,27.75,57.72,25.52Zm-2,36.7c1.49-.59,1.88-1.87,1.19-3A2,2,0,0,0,55.74,62.22Zm-19.12-.05c.86-1.6.28-3-1.11-3.43A2.2,2.2,0,0,0,36.62,62.17ZM23.51,30.74c-2.59-1.52-4.93-.63-5.72,1.66C19.89,33.94,22.27,33.25,23.51,30.74ZM53.43,41.38a1.6,1.6,0,0,0-2.64.1A1.61,1.61,0,0,0,53.43,41.38Zm7.7,8a1.72,1.72,0,0,0-2.78.6A1.73,1.73,0,0,0,61.13,49.4ZM47.77,22.89c5.91,1.85,10.2-1,10.73-6C53.57,14.76,49.1,17.26,47.77,22.89Zm27.29,8.19c-1-1.12-2.23-1.06-2.95-.1A1.79,1.79,0,0,0,75.07,31.08ZM63.53,63.42c.18-1.08-.43-1.77-1.31-1.74A1.33,1.33,0,0,0,63.53,63.42ZM16.23,21.67c2.14,7.14,7.85,9.5,13.13,6.69C28.16,22,22.69,19.22,16.23,21.67ZM16.9,54.5c3.81-2.75,4-6.68,1.28-9.27C14.65,47.26,14.11,51.13,16.9,54.5Zm13.19-2.75c2.87,1.53,5.35.45,6.08-2.09C33.82,48.08,31.29,49,30.09,51.75ZM45.38,22.94c2.18-3.09,1.33-6.14-1.44-7.38C41.78,18,42.38,21.11,45.38,22.94Zm-17,31.5c1.41.73,2.62.2,3-1A1.91,1.91,0,0,0,28.39,54.44Zm-.83,4.76c1-1.2.83-2.51-.28-3.15A1.93,1.93,0,0,0,27.56,59.21Zm14.11-14c-.93,1.74-.3,3.25,1.21,3.71A2.39,2.39,0,0,0,41.67,45.24Zm14-32.14c-4-3.44-8.39-2.62-10.46,1.13C48.35,17.56,52.7,17.09,55.63,13.1ZM43.33,14.41c-4-5.2-9.45-5.33-12.91-1.34C33.41,17.92,38.79,18.47,43.33,14.41Zm.81-1.35c3.94-3.18,4-7.41.86-10C41.31,5.4,41,9.59,44.14,13.06Zm15.2,3c3.48-2.33,3.8-5.82,1.43-8.22C57.55,9.56,57,13,59.33,16.08ZM29.44,30.26c-6.16.62-9,5-7.55,9.75C27.26,40,30.41,36,29.44,30.26Zm46.41-9.71c-5.42,1.13-7.55,5.26-5.81,9.39C74.82,29.46,77.24,25.55,75.85,20.56Zm-6,11.39c-.65,4.49,1.9,7.28,5.53,7.09C76.39,35.22,74.08,32.26,69.89,31.94ZM30.66,35.89c-3.36,3.47-2.9,7.48.35,9.6C34.22,42.81,34.08,38.81,30.66,35.89Zm3.74-15c-4.14,1.33-5.46,4.73-3.77,7.81C34.32,27.93,35.9,24.68,34.4,20.9Zm25-.82C58.63,26.9,62.63,31,68.11,30.49,69.36,24.68,65.73,20.34,59.38,20.08ZM45.48,28.9C41.71,30.81,41,34.28,43,37,46.47,35.67,47.49,32.3,45.48,28.9Zm20.1-8.06c.27-2.13-1-3.42-2.68-3.31C62.49,19.35,63.6,20.73,65.59,20.84ZM36.14,23.4c4-.12,6-2.77,5.28-5.91C38,17.22,35.78,19.69,36.14,23.4Zm33-10.07c-3.81,3.29-3.69,7.5-.51,10C72.19,20.84,72.4,16.67,69.12,13.33ZM23.48,50.59c2.6-3.83,1.5-7.53-1.92-9C19,44.67,19.77,48.41,23.48,50.59ZM20.89,40.45c-2.81-.77-4.78.65-5,3C18.3,44.37,20.36,43.12,20.89,40.45Zm51.56,7.74c2.59-5.05.7-9.39-3.67-10.66C66.1,41.65,67.63,46.09,72.46,48.19Zm4.29-5.42c-.22-1.32-1.19-1.87-2.2-1.48A1.62,1.62,0,0,0,76.74,42.77Zm-52.85-23c.38-6.67-3.71-10.42-9-9.67C14,15.77,17.71,19.8,23.89,19.73ZM57.36,24.6c1-1.16.79-2.42-.27-3A1.87,1.87,0,0,0,57.36,24.6Zm3.23,6.92c1.2,1,2.44.67,3-.43A1.85,1.85,0,0,0,60.59,31.52Zm5.36,9.83c-2.78.73-3.76,2.92-2.75,5C65.65,46,66.8,43.9,65.94,41.36ZM29.18,23.22c1.85-3.46.59-6.48-2.41-7.41C24.86,18.63,25.86,21.71,29.18,23.22Zm43.5,26.52c-1.46-1-2.89-.63-3.47.68A2.16,2.16,0,0,0,72.68,49.73ZM67,45.11c-1.35,1.6-1,3.33.44,4.15C68.75,48,68.57,46.27,67,45.11ZM50.77,3.17c2.25,4.92,6.6,6,10.11,3.48C59.38,2.21,55.16.76,50.77,3.17ZM31.87,1.25c0,5.87,3.73,9,8.34,8.07C40.76,4.26,37.29.9,31.87,1.25Zm16,8.44c2.69,1.28,4.92.2,5.5-2.13C51.14,6.21,48.85,7.1,47.84,9.69Zm.11-6.61c-.51,1.88.43,3.19,2,3.3A2.36,2.36,0,0,0,47.95,3.08Zm6.53,5.56c-.53,2,.45,3.33,2.07,3.44A2.46,2.46,0,0,0,54.48,8.63Zm22.13,35c-2.52,1.11-3.13,3.34-1.86,5.17C77,48.07,77.8,45.91,76.61,43.63ZM35.89,39.12c-1.74.92-2.06,2.54-1.07,3.77C36.4,42.26,36.85,40.68,35.89,39.12Zm-9,8.18c1.5-1.16,1.54-2.75.39-3.76A2.32,2.32,0,0,0,26.91,47.3ZM20,39.76c1.18-2.77,0-5-2.33-5.5C16.44,36.54,17.41,38.83,20,39.76ZM19.34,29c-.22-1.32-1.19-1.87-2.19-1.48A1.62,1.62,0,0,0,19.34,29Zm13.24-9.42c-1.32.16-1.92,1.1-1.59,2.13A1.62,1.62,0,0,0,32.58,19.57ZM27.16,7.82c1.73,2.82,4.46,3.17,6.4,1.36C32.32,6.59,29.65,6,27.16,7.82ZM23.08.39c1.06,4.74,4.68,6.54,8.24,5C30.83,1.15,27.4-.91,23.08.39Zm18.3,2.09c-1.22,1.05-1.18,2.4-.16,3.21A2,2,0,0,0,41.38,2.47ZM60.71.92c-1,1.23-.79,2.56.34,3.19A2,2,0,0,0,60.71.92ZM27,42.7c-.69-2-2.36-2.66-3.86-1.8C23.57,42.72,25.17,43.48,27,42.7Zm9.8-24.22a1.6,1.6,0,0,0-2.64.14A1.61,1.61,0,0,0,36.81,18.48ZM18.48,20a1.6,1.6,0,0,0-2.6-.5A1.61,1.61,0,0,0,18.48,20ZM62.06,7.59c.35,1.58,1.56,2.18,2.74,1.65A2,2,0,0,0,62.06,7.59ZM76.82,9c-5,2.3-6.11,6.75-3.52,10.34C77.8,17.84,79.27,13.53,76.82,9ZM37,50.22c-2.77,5.18-.89,9.71,3.61,11.1C43.51,57.1,42,52.47,37,50.22Z"/>
  </g>
</svg>
